<mxfile host="65bd71144e">
    <diagram id="8m60Sc821fxVVBQXyu4-" name="Page-1">
        <mxGraphModel dx="168" dy="477" grid="1" gridSize="10" guides="1" tooltips="1" connect="1" arrows="1" fold="1" page="1" pageScale="1" pageWidth="850" pageHeight="1100" math="0" shadow="0">
            <root>
                <mxCell id="0"/>
                <mxCell id="1" parent="0"/>
                <mxCell id="11" value="" style="rounded=1;whiteSpace=wrap;html=1;" parent="1" vertex="1">
                    <mxGeometry x="430" y="30" width="80" height="80" as="geometry"/>
                </mxCell>
                <mxCell id="12" value="" style="rounded=1;whiteSpace=wrap;html=1;" parent="1" vertex="1">
                    <mxGeometry x="430" y="160" width="80" height="80" as="geometry"/>
                </mxCell>
                <mxCell id="10" value="" style="rounded=1;whiteSpace=wrap;html=1;" parent="1" vertex="1">
                    <mxGeometry x="10" y="70" width="80" height="80" as="geometry"/>
                </mxCell>
                <mxCell id="2" value="62" style="rounded=1;whiteSpace=wrap;html=1;fillColor=#60a917;strokeColor=#2D7600;fontColor=#ffffff;fontSize=21;" parent="1" vertex="1">
                    <mxGeometry x="20" y="80" width="60" height="60" as="geometry"/>
                </mxCell>
                <mxCell id="3" value="61" style="rounded=1;whiteSpace=wrap;html=1;fillColor=#fa6800;strokeColor=#C73500;fontColor=#000000;fontSize=21;" parent="1" vertex="1">
                    <mxGeometry x="20" y="160" width="60" height="60" as="geometry"/>
                </mxCell>
                <mxCell id="6" value="61" style="rounded=1;whiteSpace=wrap;html=1;fillColor=#60a917;strokeColor=#2D7600;fontColor=#ffffff;fontSize=21;" parent="1" vertex="1">
                    <mxGeometry x="520" y="40" width="60" height="60" as="geometry"/>
                </mxCell>
                <mxCell id="7" value="61" style="rounded=1;whiteSpace=wrap;html=1;fillColor=#fa6800;strokeColor=#C73500;fontColor=#000000;fontSize=21;" parent="1" vertex="1">
                    <mxGeometry x="440" y="40" width="60" height="60" as="geometry"/>
                </mxCell>
                <mxCell id="8" value="61" style="rounded=1;whiteSpace=wrap;html=1;fillColor=#fa6800;strokeColor=#C73500;fontColor=#000000;fontSize=21;" parent="1" vertex="1">
                    <mxGeometry x="520" y="170" width="60" height="60" as="geometry"/>
                </mxCell>
                <mxCell id="9" value="61" style="rounded=1;whiteSpace=wrap;html=1;fillColor=#60a917;strokeColor=#2D7600;fontColor=#ffffff;fontSize=21;" parent="1" vertex="1">
                    <mxGeometry x="440" y="170" width="60" height="60" as="geometry"/>
                </mxCell>
                <mxCell id="13" value="Thread Runs alone at high priority" style="text;html=1;strokeColor=none;fillColor=none;align=center;verticalAlign=middle;whiteSpace=wrap;rounded=0;" parent="1" vertex="1">
                    <mxGeometry y="20" width="100" height="20" as="geometry"/>
                </mxCell>
                <mxCell id="15" value="61" style="rounded=1;whiteSpace=wrap;html=1;fillColor=#60a917;strokeColor=#2D7600;fontColor=#ffffff;fontSize=21;" parent="1" vertex="1">
                    <mxGeometry x="150" y="80" width="60" height="60" as="geometry"/>
                </mxCell>
                <mxCell id="16" value="61" style="rounded=1;whiteSpace=wrap;html=1;fillColor=#fa6800;strokeColor=#C73500;fontColor=#000000;fontSize=21;" parent="1" vertex="1">
                    <mxGeometry x="150" y="160" width="60" height="60" as="geometry"/>
                </mxCell>
                <mxCell id="17" value="Thread priority is reduced" style="text;html=1;strokeColor=none;fillColor=none;align=center;verticalAlign=middle;whiteSpace=wrap;rounded=0;" parent="1" vertex="1">
                    <mxGeometry x="130" y="20" width="100" height="20" as="geometry"/>
                </mxCell>
                <mxCell id="19" value="Push to back or ready queue" style="text;html=1;strokeColor=none;fillColor=none;align=center;verticalAlign=middle;whiteSpace=wrap;rounded=0;" parent="1" vertex="1">
                    <mxGeometry x="340" y="50" width="70" height="40" as="geometry"/>
                </mxCell>
                <mxCell id="20" value="Push to front of ready queue" style="text;html=1;strokeColor=none;fillColor=none;align=center;verticalAlign=middle;whiteSpace=wrap;rounded=0;" parent="1" vertex="1">
                    <mxGeometry x="350" y="180" width="70" height="40" as="geometry"/>
                </mxCell>
                <mxCell id="21" value="" style="endArrow=open;html=1;endFill=0;endSize=20;" edge="1" parent="1">
                    <mxGeometry width="50" height="50" relative="1" as="geometry">
                        <mxPoint x="100" y="150" as="sourcePoint"/>
                        <mxPoint x="140" y="150" as="targetPoint"/>
                    </mxGeometry>
                </mxCell>
                <mxCell id="22" value="" style="endArrow=open;html=1;endFill=0;endSize=20;entryX=0;entryY=0.5;entryDx=0;entryDy=0;" edge="1" parent="1" target="19">
                    <mxGeometry width="50" height="50" relative="1" as="geometry">
                        <mxPoint x="230" y="150" as="sourcePoint"/>
                        <mxPoint x="270" y="150" as="targetPoint"/>
                    </mxGeometry>
                </mxCell>
                <mxCell id="24" value="" style="endArrow=open;html=1;endFill=0;endSize=20;entryX=0;entryY=0.5;entryDx=0;entryDy=0;" edge="1" parent="1" target="20">
                    <mxGeometry width="50" height="50" relative="1" as="geometry">
                        <mxPoint x="230" y="150" as="sourcePoint"/>
                        <mxPoint x="350" y="80" as="targetPoint"/>
                    </mxGeometry>
                </mxCell>
                <mxCell id="25" value="Ambiguity" style="text;html=1;strokeColor=none;fillColor=none;align=center;verticalAlign=middle;whiteSpace=wrap;rounded=0;" vertex="1" parent="1">
                    <mxGeometry x="260" y="130" width="40" height="30" as="geometry"/>
                </mxCell>
                <mxCell id="27" value="Thread continues to run" style="text;html=1;strokeColor=none;fillColor=none;align=center;verticalAlign=middle;whiteSpace=wrap;rounded=0;" vertex="1" parent="1">
                    <mxGeometry x="420" y="250" width="100" height="20" as="geometry"/>
                </mxCell>
                <mxCell id="28" value="" style="endArrow=none;html=1;endSize=20;" edge="1" parent="1">
                    <mxGeometry width="50" height="50" relative="1" as="geometry">
                        <mxPoint x="340" y="140" as="sourcePoint"/>
                        <mxPoint x="600" y="140" as="targetPoint"/>
                    </mxGeometry>
                </mxCell>
            </root>
        </mxGraphModel>
    </diagram>
</mxfile>